<?xml version="1.0" encoding="utf-8"?>
<!-- Generator: Adobe Illustrator 19.0.0, SVG Export Plug-In . SVG Version: 6.00 Build 0)  -->
<svg version="1.1" id="Camada_1" xmlns="http://www.w3.org/2000/svg" xmlns:xlink="http://www.w3.org/1999/xlink" x="0px" y="0px"
	 viewBox="0 0 147 49.9" style="enable-background:new 0 0 147 49.9;" xml:space="preserve">
<style type="text/css">
	.st0{fill:#FFFFFF;}
</style>
<g id="XMLID_1_">
	<path id="XMLID_16_" class="st0" d="M11.9,49.9H1.7V8.1l7.4-6.9H30v36.4H11.9V49.9z M19.7,28.2V10.5h-7.9v17.8H19.7z"/>
	<path id="XMLID_19_" class="st0" d="M51.2,40.7v9.2H34.3v-9.2h3.4V10.5h-3.4V1.2h16.9v9.2h-3.4v30.3H51.2z"/>
	<path id="XMLID_21_" class="st0" d="M55.6,49.9V1.2h10.2v39.5h14.3v9.2H55.6z"/>
	<path id="XMLID_23_" class="st0" d="M84.5,1.2h29.4v48.7H84.5V1.2z M94.7,40.7h9V10.5h-9V40.7z"/>
	<path id="XMLID_26_" class="st0" d="M147.4,10.5h-9.2v39.5h-10.3V10.5h-9.5V1.2h29V10.5z"/>
</g>
</svg>
