<?xml version="1.0" encoding="utf-8"?>
<!-- Generator: Adobe Illustrator 19.0.0, SVG Export Plug-In . SVG Version: 6.00 Build 0)  -->
<svg version="1.1" xmlns="http://www.w3.org/2000/svg" xmlns:xlink="http://www.w3.org/1999/xlink" x="0px" y="0px"
	 viewBox="0 0 50 50" style="enable-background:new 0 0 50 50;" xml:space="preserve">
<style type="text/css">
	.st0{fill:#FEFEFE;}
</style>
<g id="Camada_2">
</g>
<g id="Camada_1">
	<g id="XMLID_2_">
		<g id="XMLID_13_">
			<path id="XMLID_25_" class="st0" d="M43.7,31.5c-0.9,8.8-9,15.7-18.9,15.7c-9.3,0-17.1-6.1-18.7-14.2
				c2.9,6.6,10.1,11.3,18.5,11.3C33.7,44.3,41.3,38.9,43.7,31.5z"/>
			<path id="XMLID_24_" class="st0" d="M37.4,35.9c0.9,0,1.7-0.2,2.6-0.6c-2.5,3.2-5.9,5.6-9.9,6.7c0,0-0.1,0-0.1,0
				c-2.4,0.6,2.4-3.6,2.5-9.4c0.8,1.6,2.1,2.8,3.7,3.1C36.6,35.9,37,35.9,37.4,35.9z"/>
			<path id="XMLID_23_" class="st0" d="M42.6,29.5c-0.4,1.6-1.3,3-2.4,4c-1.1,0.9-2.4,1.2-3.6,0.9c-1.2-0.3-2.2-1.2-2.8-2.5
				c-0.6-1.4-0.8-3-0.4-4.6c0.7-2.9,2.9-5,5.2-5c0.3,0,0.6,0,0.9,0.1C42,23,43.4,26.2,42.6,29.5z"/>
			<path id="XMLID_19_" class="st0" d="M35.9,18.8c-1.1-2.4-2.7-4.5-4.7-6.4C27.4,9,22.6,7.2,17.6,7.2c-0.3,0-0.7,0-1,0
				c-1.8,0.1-3.6,0.4-5.3,1c-2.1,2-3.8,4.5-4.8,7.2c0,0,0,0,0,0c-0.9,3.2,1.8,4.9,4.8,6c6,2.4,13.7-2.1,18.8,4.2
				c0.7,0.9,1.3,1.9,1.6,2.8c0-0.5,0.1-1.1,0.2-1.6c0.5-2,1.5-3.7,3-4.8c0.6-0.5,1.3-0.8,1.9-1C36.6,20.3,36.3,19.5,35.9,18.8z
				 M11.4,10.1c-0.2,0.3-0.5,0.7-0.8,1.1c-0.2,0.2-0.3,0.5-0.5,0.8c-0.2,0.3-0.4,0.6-0.5,0.9c-0.4,0.6-0.7,1.2-1,1.9
				c-0.3,0.7-0.4,1.3-0.4,2c0,0.3,0.1,0.6,0.2,0.9c0.1,0.3,0.3,0.5,0.4,0.7c0.2,0.2,0.4,0.4,0.5,0.5c0.2,0.1,0.3,0.3,0.5,0.4
				c0.1,0.1,0.2,0.2,0.3,0.2c0.1,0,0.1,0.1,0.1,0.1s0,0-0.1,0c-0.1,0-0.2-0.1-0.4-0.1c-0.2-0.1-0.4-0.1-0.6-0.2
				c-0.2-0.1-0.5-0.2-0.7-0.4c-0.2-0.2-0.5-0.4-0.7-0.7c-0.2-0.3-0.3-0.7-0.4-1.1c-0.1-0.8,0-1.6,0.3-2.4C8,14,8.2,13.7,8.4,13.3
				C8.6,13,8.8,12.7,9,12.4c0.2-0.3,0.4-0.6,0.7-0.8c0.2-0.3,0.4-0.5,0.6-0.7c0.4-0.4,0.8-0.7,1-0.9c0.2-0.2,0.4-0.3,0.4-0.3
				C11.7,9.7,11.6,9.8,11.4,10.1z"/>
			<path id="XMLID_18_" class="st0" d="M44.3,22.8c0,1-0.1,2-0.2,2.9c-0.1-0.5-0.3-1.1-0.5-1.6c-0.8-1.7-2.2-2.8-3.8-3.2
				c-0.4-0.1-0.8-0.1-1.2-0.1c-1.9-5.5-5.8-10-10.9-12.6C23.3,6,18.4,5.2,14,6C17,4,20.7,2.8,24.7,2.8C35.5,2.8,44.3,11.7,44.3,22.8
				z"/>
			<path id="XMLID_14_" class="st0" d="M29.2,27.1c-4.5-5.7-13.5-2.1-18.8-4.2c-1.4-0.6-3.2-1.8-4.1-2.7c-0.2,1.2-0.5,3.1-0.5,4.3
				c0,9.7,7.8,17.5,17.3,17.5c1.8,0,3-0.1,4.7-0.6C29.2,38.8,33.3,32.8,29.2,27.1z M29.3,33.1c0,0.2,0,0.4-0.1,0.5
				c-0.1,0.3-0.1,0.6-0.2,0.9c-0.1,0.5-0.2,0.7-0.2,0.7s0-0.3,0-0.8c0-0.2,0-0.5,0-0.8c0-0.3-0.1-0.7-0.1-1.1
				c-0.1-0.4-0.1-0.8-0.3-1.2c-0.1-0.4-0.3-0.9-0.5-1.3c-0.1-0.2-0.2-0.4-0.3-0.6c-0.1-0.2-0.3-0.4-0.4-0.6c-0.3-0.4-0.6-0.8-1-1.1
				c-0.4-0.3-0.8-0.6-1.2-0.8c-0.4-0.2-0.9-0.4-1.3-0.6c-0.4-0.2-0.9-0.3-1.3-0.4c-0.4-0.1-0.9-0.2-1.2-0.3
				c-0.8-0.2-1.5-0.3-1.9-0.3c-0.5-0.1-0.7-0.1-0.7-0.1s0.1,0,0.2,0c0.1,0,0.3-0.1,0.6-0.1c0.2,0,0.5-0.1,0.9-0.1c0.3,0,0.7,0,1.1,0
				c0.4,0,0.9,0,1.3,0.1c0.5,0.1,1,0.2,1.5,0.3c0.5,0.2,1,0.3,1.5,0.6c0.5,0.3,1,0.6,1.5,0.9c0.9,0.7,1.6,1.8,2,2.8
				c0.2,0.5,0.3,1,0.4,1.5c0.1,0.5,0.1,0.9,0.1,1.4C29.3,32.7,29.3,32.9,29.3,33.1z"/>
		</g>
	</g>
</g>
</svg>
